<?xml version="1.0" encoding="UTF-8" standalone="no"?>
<!-- Created with Inkscape (http://www.inkscape.org/) -->

<svg
   xmlns:dc="http://purl.org/dc/elements/1.1/"
   xmlns:cc="http://creativecommons.org/ns#"
   xmlns:rdf="http://www.w3.org/1999/02/22-rdf-syntax-ns#"
   xmlns:svg="http://www.w3.org/2000/svg"
   xmlns="http://www.w3.org/2000/svg"
   xmlns:xlink="http://www.w3.org/1999/xlink"
   xmlns:sodipodi="http://sodipodi.sourceforge.net/DTD/sodipodi-0.dtd"
   xmlns:inkscape="http://www.inkscape.org/namespaces/inkscape"
   width="230.32753"
   height="378.74942"
   id="svg3233"
   version="1.1"
   inkscape:version="0.48.2 r9819"
   sodipodi:docname="ornate_antenna_cover.svg">
  <defs
     id="defs3235" />
  <sodipodi:namedview
     id="base"
     pagecolor="#ffffff"
     bordercolor="#666666"
     borderopacity="1.0"
     inkscape:pageopacity="0.0"
     inkscape:pageshadow="2"
     inkscape:zoom="2.8284271"
     inkscape:cx="23.893454"
     inkscape:cy="191.45473"
     inkscape:document-units="mm"
     inkscape:current-layer="layer2"
     showgrid="false"
     fit-margin-top="1"
     fit-margin-left="1"
     fit-margin-right="1"
     fit-margin-bottom="1"
     showguides="true"
     inkscape:guide-bbox="true"
     units="mm"
     inkscape:snap-bbox="true"
     inkscape:bbox-paths="true"
     inkscape:window-width="1280"
     inkscape:window-height="968"
     inkscape:window-x="-4"
     inkscape:window-y="-4"
     inkscape:window-maximized="1"
     inkscape:object-paths="true" />
  <metadata
     id="metadata3238">
    <rdf:RDF>
      <cc:Work
         rdf:about="">
        <dc:format>image/svg+xml</dc:format>
        <dc:type
           rdf:resource="http://purl.org/dc/dcmitype/StillImage" />
        <dc:title></dc:title>
      </cc:Work>
    </rdf:RDF>
  </metadata>
  <g
     inkscape:label="Layer 1"
     inkscape:groupmode="layer"
     id="layer1"
     transform="translate(1116.3625,-194.10464)"
     style="display:none">
    <rect
       ry="6.5581198"
       y="197.64795"
       x="-1112.8192"
       height="371.66278"
       width="223.24092"
       id="rect4335"
       style="color:#000000;fill:#800000;fill-opacity:1;fill-rule:nonzero;stroke:#ff0000;stroke-width:0.03543307;stroke-linecap:butt;stroke-linejoin:miter;stroke-miterlimit:4;stroke-opacity:1;stroke-dasharray:none;stroke-dashoffset:0;marker:none;visibility:visible;display:inline;overflow:visible;enable-background:accumulate" />
    <rect
       style="color:#000000;fill:#00ff00;fill-opacity:1;fill-rule:nonzero;stroke:none;stroke-width:7;marker:none;visibility:visible;display:inline;overflow:visible;enable-background:accumulate"
       id="rect3551"
       width="213.61143"
       height="361.53314"
       x="-1108.0044"
       y="202.71278"
       ry="6.5581198" />
    <path
       style="fill:#ffffff;stroke:none"
       d="m -920.7712,210.72629 c -3.28371,0 -3.99295,2.01075 -3.99295,3.21985 0,1.11378 0.23517,2.93294 2.46272,2.93294 1.64375,0 2.56969,-0.45206 3.00468,-1.23534 0.62803,0.56818 0.51804,1.85506 0.51804,2.85324 0,1.62502 -2.78974,3.40316 -4.61461,3.40316 -2.82444,0 -12.00908,-5.14061 -16.96003,-5.14061 -7.2129,0 -15.18983,7.32437 -18.31489,7.32437 -1.30242,0 -1.94984,-0.25085 -2.18378,-0.78105 0.73805,-0.42179 1.99248,-1.28066 1.9925,-3.41114 0,-1.48529 -1.38939,-2.57428 -3.18001,-2.57428 -1.77014,0 -3.26768,2.44094 -3.26768,5.11669 0,2.07185 2.65166,4.63054 6.26437,4.63054 1.42939,-0.0297 2.95163,0.009 4.24797,-0.0399 -0.61847,1.07144 -1.32299,2.29139 -1.32299,3.29955 0,2.72123 1.54207,6.85415 5.28406,6.85415 1.29949,0 3.20078,-1.42368 3.24375,-3.13219 0.0642,-2.55198 -2.26134,-3.40186 -3.49081,-3.37128 -0.61168,-3.44461 3.85883,-9.71535 10.66375,-9.71535 4.26592,0 9.44404,2.49124 9.65161,7.93008 0.0842,2.20665 -2.87356,7.62711 -6.94183,5.96949 0.60393,-1.15565 0.88468,-1.91154 0.88468,-3.40317 0,-1.73438 -1.62939,-2.9409 -4.02481,-2.9409 -2.24976,0 -2.8931,1.85117 -2.8931,3.17203 0,2.27314 -0.58651,7.6814 10.10588,7.91415 -0.25646,1.65254 -0.93808,2.60592 -1.85698,3.34737 -1.26211,0.78496 -2.38596,0.74918 -3.3713,0.74918 -2.16624,0 -2.85323,2.0156 -2.85323,3.67414 0,2.80723 2.88547,4.81384 4.64646,4.81384 4.40297,0 3.57367,-5.73012 4.63853,-6.82227 1.05463,-1.25984 5.10871,-1.61789 5.10871,-1.61789 0,0 -0.45427,1.89215 -0.45427,4.98121 0,4.34718 3.75286,5.06091 5.037,5.06091 1.76099,0 3.70601,-0.86904 3.70601,-2.63008 0,-1.67266 -1.26859,-3.1724 -4.04873,-3.14813 -0.15445,-2.75869 0.32716,-5.41158 5.3558,-5.41158 5.28966,0 6.35697,4.71157 6.35697,8.17439 0,3.91961 -5.7358,11.73523 -9.40149,12.26849 -0.53415,-1.85911 -1.98616,-3.0206 -3.44301,-3.0206 -0.78756,0 -2.39894,0.59721 -2.39896,2.78151 0,1.69282 1.17978,2.83113 2.23956,3.44301 2.25716,1.30316 4.65738,0.86623 6.87804,1.03609 0,0 -0.94524,3.2941 -0.59773,4.90948 0.34752,1.61539 1.90473,4.09655 5.18842,4.09655 3.07017,0 3.42682,-1.6376 3.45099,-3.27564 0.0409,-2.77193 -2.86764,-3.396 -4.71022,-2.98873 -1.04496,-7.7068 7.31817,-11.83254 7.31817,-19.15973 0,-7.18536 -3.34118,-11.51216 -3.34118,-15.06318 0,-3.40519 2.08812,-5.16452 2.08812,-5.16452 0,0 0.80393,4.7182 4.14437,4.7182 2.56816,0 3.71399,-2.32551 3.71399,-3.84151 0,-1.80121 -1.4113,-4.42125 -3.76181,-5.51519 -1.8488,-0.86045 -5.26016,-0.30286 -5.26016,-0.30286 -0.0122,-1.61338 0.47641,-2.72213 0.95639,-3.93715 0,0 6.10498,-1.21499 6.10498,-4.22407 0,-2.65731 -1.04502,-4.17624 -3.66618,-4.17624 -3.76295,0 -4.1502,4.47298 -4.68632,5.97745 -1.11533,0.65498 -1.9136,1.06797 -3.57053,1.06797 -1.42013,0 -1.40271,-0.68541 -1.40271,-0.68541 0,0 0.44632,-1.01333 0.44632,-2.66993 0,-3.15928 -2.20608,-6.32016 -5.69054,-6.32016 z m 7.82648,13.19821 c -2.28626,5.02988 -2.89728,9.66912 -2.59022,13.69236 -4.11873,-0.21265 -9.93227,1.68616 -14.05101,2.75759 1.80014,-3.45125 3.17007,-8.80954 2.50256,-14.72844 4.42767,0.56439 9.71101,-0.6384 14.13867,-1.72151 z"
       id="path3097"
       inkscape:connector-curvature="0"
       sodipodi:nodetypes="ssscssssccssccssccsscsssccsssccssscsscscscssscsscsssccsscscssccccc" />
    <use
       x="0"
       y="0"
       xlink:href="#path3097"
       id="use3139"
       transform="matrix(-1,0,0,1,-2002.3975,-0.14321633)"
       width="1944"
       height="2592"
       style="fill:#ffffff" />
    <use
       x="0"
       y="0"
       xlink:href="#path3097"
       id="use3141"
       transform="matrix(1,0,0,-1,0.62663886,767.26073)"
       width="1944"
       height="2592"
       style="fill:#ffffff" />
    <use
       x="0"
       y="0"
       xlink:href="#path3097"
       id="use3143"
       transform="matrix(-1,0,0,-1,-2003.0241,767.26073)"
       width="1944"
       height="2592"
       style="fill:#ffffff" />
    <rect
       style="color:#000000;fill:#ffffff;fill-opacity:1;fill-rule:nonzero;stroke:none;stroke-width:7;marker:none;visibility:visible;display:inline;overflow:visible;enable-background:accumulate"
       id="rect3067"
       width="60.523674"
       height="4.3155866"
       x="-1032.1425"
       y="216.18892" />
    <rect
       y="546.45422"
       x="-1032.1425"
       height="4.3155866"
       width="60.523674"
       id="rect3162"
       style="color:#000000;fill:#ffffff;fill-opacity:1;fill-rule:nonzero;stroke:none;stroke-width:7;marker:none;visibility:visible;display:inline;overflow:visible;enable-background:accumulate" />
    <rect
       style="color:#000000;fill:#ffffff;fill-opacity:1;fill-rule:nonzero;stroke:none;stroke-width:7;marker:none;visibility:visible;display:inline;overflow:visible;enable-background:accumulate"
       id="rect3116"
       width="4.5870399"
       height="202.7025"
       x="-1094.5408"
       y="282.18066" />
    <rect
       y="282.18066"
       x="-912.44379"
       height="202.7025"
       width="4.5870399"
       id="rect3164"
       style="color:#000000;fill:#ffffff;fill-opacity:1;fill-rule:nonzero;stroke:none;stroke-width:7;marker:none;visibility:visible;display:inline;overflow:visible;enable-background:accumulate" />
    <path
       style="color:#000000;fill:#ffffff;fill-opacity:1;fill-rule:nonzero;stroke:none;stroke-width:7;marker:none;visibility:visible;display:inline;overflow:visible;enable-background:accumulate"
       d="m -1001.1947,234.39769 c 0,0 -4.5907,6.99006 -4.5907,11.79551 0,4.25937 2.6221,12.01867 2.6221,12.01867 0,0 -2.4063,-7.61129 -11.7955,-7.61129 -5.3986,0 -9.7074,4.4687 -9.7074,9.28497 0,4.10845 2.7938,7.92423 5.8101,8.81475 1.7738,0.5237 6.0252,0.13756 6.0252,-2.48662 -4.3686,1.41979 -8.1054,-1.30749 -8.1054,-6.11294 0,-3.82251 3.101,-6.17845 7.8424,-5.52317 4.8591,0.67155 9.4922,6.42256 9.4922,15.64499 0,14.74729 -31.011,18.55495 -31.011,31.9993 0,4.70463 3.1825,9.1734 7.0932,9.1734 2.7122,0 3.8256,-1.25605 3.8256,-2.94888 0,-1.83619 -1.0431,-2.30903 -2.0961,-2.31925 -1.0764,-0.0105 -1.8331,0.84481 -1.8331,0.84481 -1.0513,0.25506 -2.7463,-1.36958 -2.6938,-2.90106 0.065,-1.89158 1.9034,-3.28887 4.0408,-3.37128 7.593,-0.29275 8.1229,8.66893 5.8579,13.42934 0.6724,0.12652 5.6758,-2.56524 2.9488,-16.60137 7.334,10.87864 3.8254,22.22385 -2.0721,26.81086 5.6245,-1.74743 12.1222,-3.00487 12.1222,-21.7898 3.1672,4.15016 3.1641,8.07617 3.1641,11.14197 0,9.10098 -19.0003,37.13195 -19.0003,37.13195 0,0 1.0903,-9.93861 0.6535,-12.8874 -0.7736,-5.22147 -5.2399,-13.39747 -15.5095,-13.39747 -5.9182,0 -10.5602,4.6919 -10.5602,10.52032 0,6.0696 3.6014,8.12524 6.3043,8.48798 2.5497,0.3422 6.878,-1.20346 6.878,-1.20346 -4.9508,1.11728 -10.1218,-2.06784 -10.1218,-7.02948 0,-4.39038 3.3325,-7.60332 7.7229,-7.60332 6.347,0 10.9905,5.58665 10.9905,10.87896 0,20.3339 -8.6479,32.97006 -8.48,44.17737 -0.7002,1.09651 -7.7948,-3.92034 -8.0497,-9.65956 -0.3204,-7.21706 2.1844,-11.21206 6.7107,-14.32199 0,0 -10.0058,2.08277 -10.1696,9.56393 -0.096,4.3677 1.586,6.87006 1.586,6.87011 0,0 -4.6575,-4.9581 -9.9544,-6.105 0.2163,4.49782 1.921,9.95122 7.3164,12.83958 -3.9864,-0.98292 -10.8711,-0.55282 -13.8199,1.52227 2.9488,2.07494 9.8335,2.51307 13.8199,1.53023 -5.3954,2.88823 -7.1001,8.33382 -7.3164,12.83157 5.2969,-1.14662 9.9544,-6.09699 9.9544,-6.09699 0,0 -1.6816,2.49463 -1.586,6.86211 0.1638,7.48128 10.1696,9.57191 10.1696,9.57191 -4.5263,-3.10991 -7.0311,-7.10485 -6.7107,-14.322 0.2549,-5.73912 7.3495,-10.75604 8.0497,-9.65956 -0.1679,11.20747 8.48,23.84348 8.48,44.17738 0,5.29232 -4.6435,10.87895 -10.9905,10.87895 -4.3904,1.3e-4 -7.7229,-3.21292 -7.7229,-7.6033 0,-4.96181 5.171,-8.14675 10.1218,-7.02951 0,0 -4.3283,-1.54563 -6.878,-1.20344 -2.7029,0.36274 -6.3043,2.41039 -6.3043,8.48001 0,5.82841 4.642,10.5283 10.5602,10.5283 10.2696,0 14.7359,-8.17601 15.5095,-13.39748 0.4368,-2.9488 -0.6535,-12.8874 -0.6535,-12.8874 0,1.3e-4 19.0003,28.03097 19.0003,37.13195 0,3.06581 0,6.99181 -3.1641,11.14197 0,-18.78492 -6.4977,-20.04239 -12.1222,-21.78981 5.8975,4.58702 9.4061,15.93222 2.0721,26.81087 2.727,-14.03612 -2.2764,-16.72791 -2.9488,-16.60139 2.265,4.76049 1.7351,13.72209 -5.8579,13.42935 -2.1374,-0.0824 -3.9759,-1.4797 -4.0408,-3.37127 -0.053,-1.53163 1.6425,-3.15622 2.6938,-2.90105 0,0 0.7567,0.85527 1.8331,0.84478 1.053,-0.01 2.0961,-0.48304 2.0961,-2.31923 0,-1.69282 -1.1134,-2.94888 -3.8256,-2.94888 -3.9107,0 -7.0932,4.46875 -7.0932,9.17341 0,13.44422 31.011,17.25199 31.011,31.99928 0,9.22243 -4.6331,14.97346 -9.4922,15.64498 -4.7414,0.65545 -7.8424,-1.70065 -7.8424,-5.52316 0,-4.80545 3.7368,-7.5407 8.1054,-6.12091 0,-2.62419 -4.2514,-3.0023 -6.0252,-2.47866 -3.0163,0.89064 -5.8101,4.70629 -5.8101,8.81478 0,4.81618 4.3088,9.28496 9.7074,9.28496 9.3892,0 11.7955,-7.6113 11.7955,-7.6113 0,1.2e-4 -2.6221,7.7594 -2.6221,12.01866 0,4.13861 3.3913,9.87043 4.3356,11.38905 l 0,0.40646 c 0,0 0.073,-0.11428 0.1275,-0.19924 0.054,0.085 0.1276,0.19924 0.1276,0.19924 l 0,-0.40646 c 0.9438,-1.51943 4.3276,-7.25088 4.3276,-11.38905 0,-4.25923 -2.61412,-12.01854 -2.61412,-12.01866 0,0 2.40624,7.6113 11.79549,7.6113 5.39862,0 9.69943,-4.4687 9.69943,-9.28496 0,-4.10864 -2.78581,-7.92424 -5.80212,-8.81478 -1.77381,-0.5237 -6.03325,-0.14553 -6.03325,2.47866 4.36859,-1.41979 8.11339,1.31546 8.11339,6.12091 0,3.82251 -3.10103,6.17848 -7.84242,5.52316 -4.859,-0.67142 -9.50016,-6.42255 -9.50016,-15.64498 0,-14.74729 31.019,-18.55493 31.019,-31.99928 0,-4.70476 -3.19043,-9.17341 -7.10123,-9.17341 -2.7121,0 -3.81756,1.25606 -3.81759,2.94888 0,1.83619 1.04321,2.30908 2.09608,2.31923 1.07657,0.0105 1.83311,-0.84481 1.83311,-0.84478 1.05119,-0.25519 2.74638,1.36945 2.69382,2.90105 -0.0648,1.89142 -1.90338,3.28887 -4.04075,3.37127 -7.59302,0.29274 -8.12296,-8.66894 -5.85789,-13.42935 -0.67241,-0.1264 -5.67585,2.56527 -2.94888,16.60139 -7.334,-10.87865 -3.82536,-22.22385 2.07216,-26.81087 -5.62448,1.74742 -12.12226,3.00489 -12.12226,21.78981 -3.16722,-4.15016 -3.16405,-8.07616 -3.16405,-11.14197 0,-9.10098 19.00033,-37.1319 19.00033,-37.13195 0,0 -1.09039,9.9386 -0.65356,12.8874 0.77355,5.22147 5.23988,13.39748 15.50952,13.39748 5.91808,0 10.5522,-4.69989 10.5522,-10.5283 0,-6.06962 -3.59334,-8.11727 -6.29628,-8.48001 -2.54959,-0.34219 -6.87799,1.20344 -6.87804,1.20344 4.95082,-1.11716 10.12182,2.0678 10.12182,7.02951 0,4.39025 -3.33256,7.60332 -7.72286,7.6033 -6.34708,0 -10.99055,-5.58663 -10.99055,-10.87895 0,-20.3339 8.6479,-32.96999 8.48001,-44.17738 0.70013,-1.09638 7.7869,3.92034 8.04165,9.65956 0.32056,7.21722 -2.17644,11.21209 -6.7027,14.322 0,0 9.99777,-2.09068 10.16168,-9.57191 0.0956,-4.36753 -1.57807,-6.86211 -1.57807,-6.86211 0,0 4.6576,4.95029 9.95446,6.09699 -0.21635,-4.49764 -1.92107,-9.94329 -7.3164,-12.83157 3.9839,0.98225 10.85215,0.54157 13.80393,-1.53023 l 0.008,0 0.25504,0 c -2.9487,-2.07519 -9.8256,-2.50519 -13.81189,-1.52227 5.39527,-2.88836 7.10005,-8.34176 7.3164,-12.83958 -5.29688,1.14693 -9.95441,6.105 -9.95446,6.105 0,0 1.67371,-2.50254 1.57807,-6.87011 -0.16391,-7.48111 -10.16168,-9.56393 -10.16168,-9.56393 4.52623,3.11006 7.02326,7.10493 6.7027,14.32199 -0.25471,5.73922 -7.3415,10.75607 -8.04165,9.65956 0.16786,-11.20731 -8.48002,-23.84347 -8.48002,-44.17737 0,-5.29231 4.64348,-10.87896 10.99056,-10.87896 4.39027,0 7.72286,3.21294 7.72286,7.60332 0,4.96164 -5.17103,8.14676 -10.12182,7.02948 7e-5,0 4.3284,1.54566 6.87804,1.20346 2.70297,-0.36274 6.29627,-2.41838 6.29627,-8.48798 0,-5.82842 -4.63406,-10.52032 -10.55219,-10.52032 -10.26972,0 -14.73594,8.176 -15.50953,13.39747 -0.43683,2.94879 0.65356,12.8874 0.65356,12.8874 0,0 -19.00033,-28.03097 -19.00033,-37.13195 0,-3.0658 -0.003,-6.99181 3.16406,-11.14197 0,18.78493 6.49775,20.04237 12.12226,21.7898 -5.89753,-4.58701 -9.40616,-15.93222 -2.07216,-26.81086 -2.72697,14.03613 2.27647,16.72789 2.94888,16.60137 -2.26507,-4.76041 -1.7351,-13.72209 5.85789,-13.42934 2.13739,0.0824 3.97589,1.4797 4.04074,3.37128 0.0526,1.53148 -1.64252,3.15612 -2.69381,2.90106 0,0 -0.75662,-0.85527 -1.83311,-0.84481 -1.05287,0.0102 -2.09608,0.48306 -2.09608,2.31925 0,1.69283 1.10543,2.94888 3.81759,2.94888 3.91082,0 7.10122,-4.46877 7.10122,-9.1734 -7e-5,-13.44435 -31.01899,-17.25201 -31.01899,-31.9993 0,-9.22243 4.64115,-14.97344 9.50016,-15.64499 4.74139,-0.65528 7.84237,1.70066 7.84242,5.52317 -3e-5,4.80545 -3.7448,7.53273 -8.1134,6.11294 0,2.62418 4.25944,3.01032 6.03326,2.48662 3.01631,-0.89052 5.80206,-4.7063 5.80211,-8.81475 0,-4.81627 -4.3008,-9.28497 -9.69942,-9.28497 -9.38925,0 -11.79551,7.61129 -11.79551,7.61129 0,0 2.61414,-7.7593 2.61414,-12.01867 0,-4.80545 -4.58268,-11.79551 -4.58268,-11.79551 z m -0.1993,43.25285 c 3.42205,7.05398 6.84321,9.77009 10.26526,12.88739 -5.21349,3.15963 -7.68988,9.05822 -10.05006,15.07115 -1.9643,-6.19043 -5.1669,-11.13816 -10.0421,-14.41761 3.8133,-3.17204 7.1771,-7.46012 9.8269,-13.54093 z m -0.2152,45.3091 c 4.21616,11.58015 12.56338,21.09516 20.0922,31.019 -14.04359,-8.75318 -27.0175,-7.53724 -39.3157,0 6.822,-10.17312 15.0524,-19.78555 19.2235,-31.019 z m 0.08,30.22999 c 16.71917,0 30.27778,13.55063 30.27778,30.2698 0,16.71919 -13.55861,30.26984 -30.27778,30.26984 -16.7192,0 -30.2698,-13.55065 -30.2698,-30.26984 0,-16.71917 13.5506,-30.2698 30.2698,-30.2698 z m -19.2793,59.44775 c 12.2982,7.53724 25.27206,8.75319 39.31572,0 -7.52887,9.92383 -15.88402,19.43884 -20.10012,31.019 -4.1712,-11.23346 -12.3936,-20.84589 -19.2156,-31.019 z m 19.6061,48.38547 c 2.36015,6.01303 4.83655,11.91153 10.05006,15.07117 -3.42207,3.11727 -6.84323,5.8334 -10.26526,12.88737 -2.6498,-6.08066 -6.0216,-10.36887 -9.8349,-13.54091 4.8752,-3.27946 8.0858,-8.22717 10.0501,-14.41763 z"
       id="path3166"
       inkscape:connector-curvature="0" />
    <path
       inkscape:connector-curvature="0"
       style="fill:#ffffff;stroke:none"
       d="m -994.02349,356.81906 c -4.86859,-0.18778 -4.70156,1.24556 -7.10111,1.19226 -2.4343,-0.0541 -3.2046,-0.81008 -4.8218,-0.87245 -1.8692,-0.0721 -7.3536,0.59237 -7.5686,6.16695 -0.3506,9.09089 9.4481,5.64315 9.5421,11.54706 0.01,0.525 -0.9028,0.72408 -0.964,1.24557 -0.064,0.54222 0.6875,0.94539 0.675,1.49119 -0.01,0.43685 -0.6145,0.73214 -0.5942,1.16864 0.027,0.59193 0.9492,1.50276 0.9492,1.50276 l 0.3005,23.1012 -5.8559,-0.22587 -0.1462,5.58337 c 0.9799,0.46643 1.7723,0.34894 2.5369,0.14395 l -0.033,-2.1088 c 0.7283,-0.35417 1.4379,-0.2645 2.3468,0.31901 l 0.1055,2.0204 c 2.1645,0.72017 4.2591,1.78555 6.85798,0.35571 l -0.14458,-29.50896 c 0,0 0.92784,-0.72175 0.96401,-1.24558 0.0328,-0.47532 -0.53825,-0.83077 -0.59102,-1.30555 -0.0615,-0.55351 0.40575,-0.82656 0.37401,-1.38257 -0.0422,-0.73897 -0.87059,-0.94218 -0.89622,-1.70716 -0.181,-5.40335 8.8829,-2.22967 9.20905,-10.68553 0.13772,-3.57065 -2.19346,-6.68177 -5.14451,-6.7956 z m -0.96784,2.20249 c 1.92363,0.0494 3.8425,1.53644 3.94673,4.04659 0.11753,2.83031 -1.6027,3.84973 -3.6451,4.06043 -0.932,0.0961 -2.83498,-0.62646 -2.83498,-0.62646 0,0 1.33408,-1.90175 1.17869,-3.40795 -0.15685,-1.52036 -1.46344,-3.13606 -1.46344,-3.13606 0,0 1.0443,-0.78575 2.32934,-0.91832 0.16199,-0.0167 0.32574,-0.0224 0.48876,-0.0182 z m -12.04327,0.47851 c 1.2909,0.0498 2.112,0.66471 2.112,0.66471 0,0 -1.1989,1.69623 -1.2578,3.22352 -0.058,1.51306 1.394,3.32579 1.394,3.32579 0,0 -1.808,0.6428 -2.7443,0.60669 -2.0517,-0.0791 -3.9627,-0.78583 -3.9422,-3.6185 0.014,-1.98393 2.3555,-4.28255 4.4383,-4.20221 z m 5.8989,0.74663 c 1.64358,0.0634 2.92459,1.44724 2.8612,3.09077 -0.0634,1.64352 -1.44722,2.92358 -3.0907,2.86019 -1.6435,-0.0634 -2.9236,-1.4462 -2.8602,-3.08973 0.063,-1.64352 1.4462,-2.92462 3.0897,-2.86123 z m 2.20622,7.47097 1.03277,0.94678 c 0,0 -2.94819,3.25553 -3.33189,3.24073 -0.636,-0.0245 -3.3993,-3.40314 -3.3993,-3.40314 l 0.7722,-0.71582 c 2.0046,0.7245 3.5592,0.52219 4.92622,-0.0686 z"
       id="path3477" />
  </g>
  <g
     inkscape:groupmode="layer"
     id="layer2"
     inkscape:label="reader"
     transform="translate(-14.91783,-1099.4028)"
     style="display:inline">
    <g
       id="g3194"
       transform="translate(1735.6477,1002.4813)"
       style="fill:#0000ff">
      <path
         inkscape:connector-curvature="0"
         id="rect3895"
         d="m -1701.7693,166.67171 0,257.59375 192.4063,0 0,-257.59375 z m 6.8843,6.03125 178.9595,0 0,226.75 -178.9595,0 z"
         style="color:#000000;fill:#0000ff;fill-opacity:1;fill-rule:nonzero;stroke:none;stroke-width:4;marker:none;visibility:visible;display:inline;overflow:visible;enable-background:accumulate"
         sodipodi:nodetypes="cccccccccc" />
      <rect
         y="408.55621"
         x="-1627.709"
         height="66.428528"
         width="44.285717"
         id="rect3900"
         style="color:#000000;fill:#0000ff;fill-opacity:1;fill-rule:nonzero;stroke:none;stroke-width:4;marker:none;visibility:visible;display:inline;overflow:visible;enable-background:accumulate" />
    </g>
  </g>
</svg>
