<?xml version="1.0" encoding="UTF-8" standalone="no"?>
<!-- Created with Inkscape (http://www.inkscape.org/) -->

<svg
   xmlns:dc="http://purl.org/dc/elements/1.1/"
   xmlns:cc="http://creativecommons.org/ns#"
   xmlns:rdf="http://www.w3.org/1999/02/22-rdf-syntax-ns#"
   xmlns:svg="http://www.w3.org/2000/svg"
   xmlns="http://www.w3.org/2000/svg"
   xmlns:xlink="http://www.w3.org/1999/xlink"
   xmlns:sodipodi="http://sodipodi.sourceforge.net/DTD/sodipodi-0.dtd"
   xmlns:inkscape="http://www.inkscape.org/namespaces/inkscape"
   width="27"
   height="27"
   id="svg3340"
   version="1.1"
   inkscape:version="0.48.3.1 r9886"
   sodipodi:docname="launcher_icon.svg"
   inkscape:export-filename="/home/steve/work/projects/rfid_front_door/src/TagScanner/launcher_icon.png"
   inkscape:export-xdpi="1706.67"
   inkscape:export-ydpi="1706.67">
  <defs
     id="defs3342">
    <linearGradient
       id="linearGradient4864">
      <stop
         style="stop-color:#decd87;stop-opacity:1"
         offset="0"
         id="stop4866" />
      <stop
         style="stop-color:#786721;stop-opacity:1"
         offset="1"
         id="stop4868" />
    </linearGradient>
    <linearGradient
       id="linearGradient3803">
      <stop
         style="stop-color:#000000;stop-opacity:0.15686275;"
         offset="0"
         id="stop3805" />
      <stop
         style="stop-color:#000000;stop-opacity:0;"
         offset="1"
         id="stop3807" />
    </linearGradient>
    <filter
       id="filter3667"
       style="color-interpolation-filters:sRGB;"
       inkscape:label="Drop Shadow">
      <feFlood
         id="feFlood3669"
         flood-opacity="0.90000000000000002"
         flood-color="rgb(0,0,0)"
         result="flood" />
      <feComposite
         id="feComposite3671"
         in2="SourceGraphic"
         in="flood"
         operator="in"
         result="composite1" />
      <feGaussianBlur
         id="feGaussianBlur3673"
         in="composite"
         stdDeviation="0.5"
         result="blur" />
      <feOffset
         id="feOffset3675"
         dx="0"
         dy="0.69999999999999996"
         result="offset" />
      <feComposite
         id="feComposite3677"
         in2="offset"
         in="SourceGraphic"
         operator="over"
         result="composite2" />
    </filter>
    <linearGradient
       inkscape:collect="always"
       xlink:href="#linearGradient3803"
       id="linearGradient4579"
       x1="13.500001"
       y1="1050.4741"
       x2="13.500001"
       y2="1027.2234"
       gradientUnits="userSpaceOnUse" />
    <filter
       id="filter4846"
       inkscape:label="wood">
      <feTurbulence
         id="feTurbulence4848"
         result="result1"
         in="SourceAlpha"
         baseFrequency="0.40000000000000002 0.069500924214417753"
         numOctaves="8"
         seed="0" />
      <feColorMatrix
         id="feColorMatrix4860"
         values="0 0 0 0 0 0 0 0 0 0 0 0 0 0 0 0 0 0 0.2 0 " />
      <feComposite
         id="feComposite4858"
         in2="SourceAlpha"
         operator="in" />
    </filter>
    <linearGradient
       inkscape:collect="always"
       xlink:href="#linearGradient4864"
       id="linearGradient4870"
       x1="13.49454"
       y1="1026.7172"
       x2="13.49454"
       y2="1050.7678"
       gradientUnits="userSpaceOnUse" />
    <filter
       id="filter4872"
       inkscape:label="raised">
      <feDiffuseLighting
         id="feDiffuseLighting4874"
         surfaceScale="324.90974729241861"
         in="SourceAlpha">
        <feDistantLight
           id="feDistantLight4876"
           azimuth="270"
           elevation="18" />
      </feDiffuseLighting>
      <feComposite
         id="feComposite4880"
         in2="SourceAlpha"
         operator="in"
         result="result1" />
      <feColorMatrix
         id="feColorMatrix4886"
         result="result2"
         values="1 0 0 0 0 0 1 0 0 0 0 0 1 0 0 0 0 0 1 0 " />
      <feComposite
         id="feComposite4888"
         in2="SourceGraphic"
         operator="arithmetic"
         k1="-0.32727272727272805"
         k2="1.0909090909090917"
         k3="0.98181818181818059"
         k4="-0.18181818181818166" />
    </filter>
  </defs>
  <sodipodi:namedview
     id="base"
     pagecolor="#ffffff"
     bordercolor="#666666"
     borderopacity="1.0"
     inkscape:pageopacity="0.0"
     inkscape:pageshadow="2"
     inkscape:zoom="9.9074074"
     inkscape:cx="11.024206"
     inkscape:cy="15.417502"
     inkscape:document-units="px"
     inkscape:current-layer="layer1"
     showgrid="false"
     borderlayer="true"
     showguides="true"
     inkscape:guide-bbox="true"
     inkscape:snap-bbox="true"
     inkscape:snap-nodes="false" />
  <metadata
     id="metadata3345">
    <rdf:RDF>
      <cc:Work
         rdf:about="">
        <dc:format>image/svg+xml</dc:format>
        <dc:type
           rdf:resource="http://purl.org/dc/dcmitype/StillImage" />
        <dc:title></dc:title>
      </cc:Work>
    </rdf:RDF>
  </metadata>
  <g
     inkscape:label="Layer 1"
     inkscape:groupmode="layer"
     id="layer1"
     transform="translate(0,-1025.3622)">
    <rect
       style="color:#000000;fill:#c8ab37;fill-opacity:1;fill-rule:nonzero;stroke:none;stroke-width:1;marker:none;visibility:visible;display:inline;overflow:visible;filter:url(#filter3667);enable-background:accumulate"
       id="rect3733"
       width="25.77021"
       height="26.055758"
       x="0.61489487"
       y="1025.4128"
       ry="0.87099183"
       transform="matrix(0.93624468,0,0,0.93624468,0.86069677,66.219553)" />
    <rect
       ry="0.81546146"
       y="1026.6515"
       x="1.4363889"
       height="24.394564"
       width="24.127222"
       id="rect4587"
       style="color:#000000;fill:#a0892c;fill-opacity:1;fill-rule:nonzero;stroke:url(#linearGradient4870);stroke-width:0.10000000000000001;marker:none;visibility:visible;display:inline;overflow:visible;enable-background:accumulate;stroke-opacity:1;stroke-miterlimit:4;stroke-dasharray:none" />
    <g
       id="g4591"
       style="fill:#f4eed7;stroke:#786721;stroke-opacity:1;stroke-width:0.07000000000000001;stroke-miterlimit:4;stroke-dasharray:none"
       inkscape:export-xdpi="1706.67"
       inkscape:export-ydpi="1706.67">
      <path
         style="fill:#f4eed7;stroke:#786721;stroke-opacity:1;stroke-width:0.07000000000000001;stroke-miterlimit:4;stroke-dasharray:none"
         d="m 22.365359,1027.316 c -0.40831,0 -0.496499,0.2501 -0.496499,0.4004 0,0.1385 0.02924,0.3647 0.306224,0.3647 0.204391,0 0.319525,-0.056 0.373613,-0.1536 0.07809,0.07 0.06441,0.2307 0.06441,0.3548 0,0.202 -0.346887,0.4232 -0.573798,0.4232 -0.351202,0 -1.493255,-0.6393 -2.108875,-0.6393 -0.896879,0 -1.888761,0.9108 -2.277343,0.9108 -0.161948,0 -0.242451,-0.031 -0.271539,-0.097 0.09177,-0.052 0.247752,-0.1592 0.247755,-0.4242 0,-0.1846 -0.172763,-0.3201 -0.395415,-0.3201 -0.220105,0 -0.406316,0.3035 -0.406316,0.6363 0,0.2575 0.329718,0.5758 0.778936,0.5758 0.177736,0 0.367017,0 0.528209,-0.01 -0.0769,0.1332 -0.164506,0.2849 -0.164506,0.4103 0,0.3383 0.191747,0.8522 0.657041,0.8522 0.161582,0 0.397996,-0.177 0.40334,-0.3895 0.008,-0.3173 -0.281184,-0.423 -0.434061,-0.4191 -0.07606,-0.4283 0.479821,-1.2081 1.325971,-1.2081 0.530441,0 1.174308,0.3098 1.200118,0.9861 0.01047,0.2743 -0.357309,0.9483 -0.863174,0.7423 0.0751,-0.1438 0.110004,-0.2378 0.110004,-0.4232 0,-0.2157 -0.202604,-0.3657 -0.50046,-0.3657 -0.279743,0 -0.359739,0.2302 -0.359739,0.3944 0,0.2827 -0.07293,0.9552 1.256604,0.9841 -0.03189,0.2054 -0.116644,0.324 -0.230904,0.4162 -0.156936,0.098 -0.29668,0.094 -0.4192,0.094 -0.269359,0 -0.354782,0.2506 -0.354782,0.4569 0,0.349 0.358791,0.5985 0.577759,0.5985 0.547482,0 0.444364,-0.7125 0.576772,-0.8482 0.131137,-0.1567 0.635237,-0.2012 0.635237,-0.2012 0,0 -0.05648,0.2353 -0.05648,0.6194 0,0.5405 0.466645,0.6293 0.62632,0.6293 0.218967,0 0.460819,-0.1081 0.460819,-0.3271 0,-0.208 -0.157741,-0.3944 -0.503435,-0.3914 -0.0192,-0.3431 0.04068,-0.6729 0.665961,-0.6729 0.657736,0 0.79045,0.5858 0.79045,1.0164 0,0.4874 -0.713211,1.4592 -1.169017,1.5255 -0.06642,-0.2312 -0.246967,-0.3756 -0.428118,-0.3756 -0.09793,0 -0.298293,0.074 -0.298295,0.3459 0,0.2105 0.146699,0.3521 0.278475,0.4281 0.280665,0.162 0.579117,0.1077 0.855242,0.1288 0,0 -0.117535,0.4096 -0.07432,0.6105 0.04321,0.2009 0.236841,0.5093 0.645147,0.5093 0.381757,0 0.426104,-0.2036 0.429109,-0.4072 0.0051,-0.3447 -0.356572,-0.4223 -0.585686,-0.3716 -0.129934,-0.9584 0.909969,-1.4713 0.909969,-2.3825 0,-0.8934 -0.415455,-1.4314 -0.415455,-1.8729 0,-0.4235 0.259645,-0.6422 0.259645,-0.6422 0,0 0.09996,0.5866 0.515327,0.5866 0.319334,0 0.461811,-0.2892 0.461811,-0.4776 0,-0.224 -0.175486,-0.5498 -0.467758,-0.6858 -0.229887,-0.107 -0.654068,-0.038 -0.654068,-0.038 -0.0015,-0.2006 0.05924,-0.3384 0.118921,-0.4895 0,0 0.759117,-0.1512 0.759117,-0.5253 0,-0.3304 -0.129942,-0.5193 -0.455867,-0.5193 -0.4679,0 -0.516052,0.5562 -0.582715,0.7433 -0.138684,0.081 -0.237945,0.1328 -0.443973,0.1328 -0.176585,0 -0.174418,-0.085 -0.174418,-0.085 0,0 0.0555,-0.126 0.0555,-0.332 0,-0.3928 -0.274312,-0.7858 -0.707583,-0.7858 z m 0.973174,1.6411 c -0.284282,0.6255 -0.360259,1.2024 -0.322078,1.7026 -0.512139,-0.026 -1.235016,0.2097 -1.747156,0.343 0.223837,-0.4292 0.394179,-1.0955 0.311178,-1.8315 0.550553,0.07 1.207504,-0.08 1.758056,-0.2141 z"
         id="path3695"
         inkscape:connector-curvature="0"
         sodipodi:nodetypes="ssscssssccssccssccsscsssccsssccssscsscscscssscsscsssccsscscssccccc" />
      <path
         sodipodi:nodetypes="ssscssssccssccssccsscsssccsssccssscsscscscssscsscsssccsscscssccccc"
         inkscape:connector-curvature="0"
         id="use3697"
         d="m 4.5838549,1027.316 c 0.4083094,0 0.496499,0.2501 0.496499,0.4004 0,0.1385 -0.029239,0.3647 -0.3062241,0.3647 -0.2043907,0 -0.3195254,-0.056 -0.3736131,-0.1537 -0.078092,0.07 -0.064414,0.2307 -0.064414,0.3549 0,0.202 0.3468871,0.4232 0.5737982,0.4232 0.3512013,0 1.493255,-0.6393 2.1088743,-0.6393 0.8968793,0 1.8887613,0.9108 2.2773431,0.9108 0.1619478,0 0.2424508,-0.031 0.271539,-0.097 -0.091771,-0.052 -0.2477519,-0.1593 -0.2477547,-0.4242 0,-0.1847 0.1727624,-0.3201 0.3954145,-0.3201 0.2201055,0 0.4063166,0.3035 0.4063166,0.6362 0,0.2576 -0.3297186,0.5758 -0.7789363,0.5758 -0.1777358,0 -0.3670173,0 -0.5282087,-0.01 0.076903,0.1332 0.1645057,0.2849 0.1645057,0.4102 0,0.3384 -0.1917467,0.8523 -0.6570406,0.8523 -0.1615827,0 -0.3979967,-0.177 -0.4033398,-0.3895 -0.00796,-0.3173 0.2811833,-0.423 0.4340608,-0.4191 0.07606,-0.4284 -0.4798217,-1.2082 -1.3259715,-1.2082 -0.5304407,0 -1.1743074,0.3098 -1.2001178,0.9862 -0.010467,0.2743 0.3573094,0.9483 0.8631736,0.7422 -0.075096,-0.1437 -0.110004,-0.2377 -0.110004,-0.4231 0,-0.2158 0.2026042,-0.3657 0.5004602,-0.3657 0.2797433,0 0.3597389,0.2302 0.3597389,0.3944 0,0.2826 0.072934,0.9552 -1.2566033,0.9841 0.031888,0.2054 0.1166439,0.324 0.2309032,0.4161 0.1569362,0.098 0.2966801,0.094 0.4192008,0.094 0.2693585,0 0.3547815,0.2506 0.3547815,0.4569 0,0.349 -0.3587905,0.5985 -0.5777585,0.5985 -0.5474822,0 -0.4443642,-0.7125 -0.5767726,-0.8482 -0.131137,-0.1568 -0.6352364,-0.2012 -0.6352364,-0.2012 0,0 0.056484,0.2352 0.056484,0.6194 0,0.5405 -0.466645,0.6292 -0.6263196,0.6292 -0.218968,0 -0.4608197,-0.108 -0.4608197,-0.327 0,-0.208 0.1577413,-0.3944 0.5034347,-0.3914 0.019202,-0.3431 -0.04068,-0.6729 -0.6659602,-0.6729 -0.6577362,0 -0.7904498,0.5858 -0.7904498,1.0164 0,0.4874 0.7132106,1.4592 1.1690166,1.5255 0.066417,-0.2312 0.2469673,-0.3756 0.4281175,-0.3756 0.097927,0 0.2982932,0.074 0.2982951,0.3459 0,0.2105 -0.1466983,0.352 -0.2784748,0.4281 -0.2806646,0.162 -0.5791169,0.1077 -0.8552417,0.1288 0,0 0.1175343,0.4096 0.074319,0.6105 -0.043208,0.2008 -0.2368409,0.5093 -0.6451475,0.5093 -0.3817565,0 -0.4261036,-0.2036 -0.429109,-0.4072 -0.00506,-0.3448 0.3565725,-0.4223 0.5856866,-0.3716 0.1299339,-0.9584 -0.909969,-1.4713 -0.909969,-2.3825 0,-0.8935 0.4154548,-1.4314 0.4154548,-1.873 0,-0.4234 -0.2596449,-0.6421 -0.2596449,-0.6421 0,0 -0.099964,0.5866 -0.5153269,0.5866 -0.3193343,0 -0.4618111,-0.2892 -0.4618111,-0.4777 0,-0.2239 0.1754859,-0.5497 0.4677572,-0.6858 0.2298874,-0.107 0.654068,-0.037 0.654068,-0.037 0.0015,-0.2006 -0.059236,-0.3385 -0.1189209,-0.4896 0,0 -0.7591165,-0.1511 -0.7591165,-0.5252 0,-0.3304 0.1299423,-0.5193 0.4558669,-0.5193 0.4678995,0 0.5160515,0.5562 0.5827149,0.7433 0.1386841,0.081 0.2379448,0.1328 0.4439729,0.1328 0.1765851,0 0.1744186,-0.085 0.1744186,-0.085 0,0 -0.055501,-0.126 -0.055501,-0.332 0,-0.3928 0.2743122,-0.7859 0.7075829,-0.7859 z m -0.9731739,1.6411 c 0.2842823,0.6254 0.3602585,1.2024 0.3220775,1.7026 0.512139,-0.026 1.2350163,0.2097 1.7471562,0.3429 -0.2238365,-0.4291 -0.3941787,-1.0955 -0.3111778,-1.8314 -0.5505531,0.07 -1.2075038,-0.08 -1.7580559,-0.2141 z"
         style="fill:#f4eed7;stroke:#786721;stroke-opacity:1;stroke-width:0.07000000000000001;stroke-miterlimit:4;stroke-dasharray:none" />
      <path
         sodipodi:nodetypes="ssscssssccssccssccsscsssccsssccssscsscscscssscsscsssccsscscssccccc"
         inkscape:connector-curvature="0"
         id="use3699"
         d="m 22.365359,1050.3977 c -0.40831,0 -0.496499,-0.25 -0.496499,-0.4004 0,-0.1385 0.02924,-0.3647 0.306224,-0.3647 0.204391,0 0.319525,0.056 0.373613,0.1537 0.07809,-0.07 0.06441,-0.2307 0.06441,-0.3549 0,-0.202 -0.346887,-0.4231 -0.573798,-0.4231 -0.351202,0 -1.493255,0.6392 -2.108875,0.6392 -0.896879,0 -1.888761,-0.9107 -2.277343,-0.9107 -0.161948,0 -0.242451,0.031 -0.271539,0.097 0.09177,0.052 0.247752,0.1593 0.247755,0.4243 0,0.1846 -0.172763,0.3201 -0.395415,0.3201 -0.220105,0 -0.406316,-0.3036 -0.406316,-0.6363 0,-0.2576 0.329718,-0.5758 0.778936,-0.5758 0.177736,0 0.367017,0 0.528209,0.01 -0.0769,-0.1333 -0.164506,-0.2849 -0.164506,-0.4103 0,-0.3384 0.191747,-0.8523 0.657041,-0.8523 0.161582,0 0.397996,0.1771 0.40334,0.3895 0.008,0.3173 -0.281184,0.423 -0.434061,0.4192 -0.07606,0.4283 0.479821,1.2081 1.325971,1.2081 0.530441,0 1.174308,-0.3098 1.200118,-0.9861 0.01047,-0.2744 -0.357309,-0.9484 -0.863174,-0.7423 0.0751,0.1437 0.110004,0.2377 0.110004,0.4232 0,0.2157 -0.202604,0.3657 -0.50046,0.3657 -0.279743,0 -0.359739,-0.2302 -0.359739,-0.3945 0,-0.2826 -0.07293,-0.9551 1.256604,-0.9841 -0.03189,-0.2054 -0.116644,-0.324 -0.230904,-0.4161 -0.156936,-0.098 -0.29668,-0.094 -0.4192,-0.094 -0.269359,0 -0.354782,-0.2507 -0.354782,-0.4569 0,-0.3491 0.358791,-0.5986 0.577759,-0.5986 0.547482,0 0.444364,0.7125 0.576772,0.8483 0.131137,0.1567 0.635237,0.2012 0.635237,0.2012 0,0 -0.05648,-0.2353 -0.05648,-0.6194 0,-0.5405 0.466645,-0.6293 0.62632,-0.6293 0.218967,0 0.460819,0.108 0.460819,0.327 0,0.2081 -0.157741,0.3945 -0.503435,0.3915 -0.0192,0.343 0.04068,0.6729 0.665961,0.6729 0.657736,0 0.79045,-0.5859 0.79045,-1.0164 0,-0.4874 -0.713211,-1.4593 -1.169017,-1.5255 -0.06642,0.2311 -0.246967,0.3756 -0.428118,0.3756 -0.09793,0 -0.298293,-0.074 -0.298295,-0.346 0,-0.2104 0.146699,-0.352 0.278475,-0.428 0.280665,-0.1621 0.579117,-0.1078 0.855242,-0.1288 0,0 -0.117535,-0.4097 -0.07432,-0.6106 0.04321,-0.2008 0.236841,-0.5093 0.645147,-0.5093 0.381757,0 0.426104,0.2036 0.429109,0.4073 0.0051,0.3447 -0.356572,0.4222 -0.585686,0.3716 -0.129934,0.9583 0.909969,1.4713 0.909969,2.3824 0,0.8935 -0.415455,1.4315 -0.415455,1.873 0,0.4235 0.259645,0.6422 0.259645,0.6422 0,0 0.09996,-0.5867 0.515327,-0.5867 0.319334,0 0.461811,0.2892 0.461811,0.4777 0,0.2239 -0.175486,0.5497 -0.467758,0.6858 -0.229887,0.107 -0.654068,0.037 -0.654068,0.037 -0.0015,0.2007 0.05924,0.3385 0.118921,0.4896 0,0 0.759117,0.1511 0.759117,0.5252 0,0.3304 -0.129942,0.5194 -0.455867,0.5194 -0.4679,0 -0.516052,-0.5563 -0.582715,-0.7433 -0.138684,-0.082 -0.237945,-0.1329 -0.443973,-0.1329 -0.176585,0 -0.174418,0.085 -0.174418,0.085 0,0 0.0555,0.126 0.0555,0.332 0,0.3929 -0.274312,0.7859 -0.707583,0.7859 z m 0.973174,-1.6411 c -0.284282,-0.6254 -0.360259,-1.2023 -0.322078,-1.7026 -0.512139,0.026 -1.235016,-0.2097 -1.747156,-0.3429 0.223837,0.4292 0.394179,1.0955 0.311178,1.8315 0.550553,-0.07 1.207504,0.08 1.758056,0.214 z"
         style="fill:#f4eed7;stroke:#786721;stroke-opacity:1;stroke-width:0.07000000000000001;stroke-miterlimit:4;stroke-dasharray:none" />
      <path
         sodipodi:nodetypes="ssscssssccssccssccsscsssccsssccssscsscscscssscsscsssccsscscssccccc"
         inkscape:connector-curvature="0"
         id="use3701"
         d="m 4.5838549,1050.3977 c 0.4083094,0 0.496499,-0.25 0.496499,-0.4004 0,-0.1385 -0.029239,-0.3647 -0.3062241,-0.3647 -0.2043907,0 -0.3195254,0.056 -0.3736131,0.1537 -0.078092,-0.07 -0.064414,-0.2307 -0.064414,-0.3549 0,-0.202 0.3468871,-0.4231 0.5737982,-0.4231 0.3512013,0 1.493255,0.6392 2.1088743,0.6392 0.8968793,0 1.8887613,-0.9107 2.2773431,-0.9107 0.1619478,0 0.2424508,0.031 0.271539,0.097 -0.091771,0.052 -0.2477519,0.1593 -0.2477547,0.4243 0,0.1846 0.1727624,0.3201 0.3954145,0.3201 0.2201055,0 0.4063166,-0.3036 0.4063166,-0.6363 0,-0.2576 -0.3297186,-0.5758 -0.7789363,-0.5758 -0.1777358,0 -0.3670173,0 -0.5282087,0.01 0.076903,-0.1333 0.1645057,-0.2849 0.1645057,-0.4103 0,-0.3384 -0.1917467,-0.8523 -0.6570406,-0.8523 -0.1615827,0 -0.3979967,0.1771 -0.4033398,0.3895 -0.00796,0.3173 0.2811833,0.423 0.4340608,0.4192 0.07606,0.4283 -0.4798217,1.2081 -1.3259715,1.2081 -0.5304407,0 -1.1743074,-0.3098 -1.2001178,-0.9861 -0.010467,-0.2744 0.3573094,-0.9484 0.8631736,-0.7423 -0.075096,0.1437 -0.110004,0.2377 -0.110004,0.4232 0,0.2157 0.2026042,0.3657 0.5004602,0.3657 0.2797433,0 0.3597389,-0.2302 0.3597389,-0.3945 0,-0.2826 0.072934,-0.9551 -1.2566033,-0.9841 0.031888,-0.2054 0.1166439,-0.324 0.2309032,-0.4161 0.1569362,-0.098 0.2966801,-0.094 0.4192008,-0.094 0.2693585,0 0.3547815,-0.2507 0.3547815,-0.4569 0,-0.3491 -0.3587905,-0.5986 -0.5777585,-0.5986 -0.5474822,0 -0.4443642,0.7125 -0.5767726,0.8483 -0.131137,0.1567 -0.6352364,0.2012 -0.6352364,0.2012 0,0 0.056484,-0.2353 0.056484,-0.6194 0,-0.5405 -0.466645,-0.6293 -0.6263196,-0.6293 -0.218968,0 -0.4608197,0.108 -0.4608197,0.327 0,0.2081 0.1577413,0.3945 0.5034347,0.3915 0.019202,0.343 -0.04068,0.6729 -0.6659602,0.6729 -0.6577362,0 -0.7904498,-0.5859 -0.7904498,-1.0164 0,-0.4874 0.7132106,-1.4593 1.1690166,-1.5255 0.066417,0.2311 0.2469673,0.3756 0.4281175,0.3756 0.097927,0 0.2982932,-0.074 0.2982951,-0.346 0,-0.2104 -0.1466983,-0.352 -0.2784748,-0.428 -0.2806646,-0.1621 -0.5791169,-0.1078 -0.8552417,-0.1288 0,0 0.1175343,-0.4097 0.074319,-0.6106 -0.043208,-0.2008 -0.2368409,-0.5093 -0.6451475,-0.5093 -0.3817565,0 -0.4261036,0.2036 -0.429109,0.4073 -0.00506,0.3447 0.3565725,0.4222 0.5856866,0.3716 0.1299339,0.9583 -0.909969,1.4713 -0.909969,2.3824 0,0.8935 0.4154548,1.4315 0.4154548,1.873 0,0.4235 -0.2596449,0.6422 -0.2596449,0.6422 0,0 -0.099964,-0.5867 -0.5153269,-0.5867 -0.3193343,0 -0.4618111,0.2892 -0.4618111,0.4777 0,0.2239 0.1754859,0.5497 0.4677572,0.6858 0.2298874,0.107 0.654068,0.037 0.654068,0.037 0.0015,0.2007 -0.059236,0.3385 -0.1189209,0.4896 0,0 -0.7591165,0.1511 -0.7591165,0.5252 0,0.3304 0.1299423,0.5194 0.4558669,0.5194 0.4678995,0 0.5160515,-0.5563 0.5827149,-0.7433 0.1386841,-0.082 0.2379448,-0.1329 0.4439729,-0.1329 0.1765851,0 0.1744186,0.085 0.1744186,0.085 0,0 -0.055501,0.126 -0.055501,0.332 0,0.3929 0.2743122,0.7859 0.7075829,0.7859 z m -0.9731739,-1.6411 c 0.2842823,-0.6254 0.3602585,-1.2023 0.3220775,-1.7026 0.512139,0.026 1.2350163,-0.2097 1.7471562,-0.3429 -0.2238365,0.4292 -0.3941787,1.0955 -0.3111778,1.8315 -0.5505531,-0.07 -1.2075038,0.08 -1.7580559,0.214 z"
         style="fill:#f4eed7;stroke:#786721;stroke-opacity:1;stroke-width:0.07000000000000001;stroke-miterlimit:4;stroke-dasharray:none" />
      <rect
         style="color:#000000;fill:#f4eed7;fill-opacity:1;fill-rule:nonzero;stroke:#786721;stroke-width:0.07000000000000001;marker:none;visibility:visible;display:inline;overflow:visible;enable-background:accumulate;stroke-opacity:1;stroke-miterlimit:4;stroke-dasharray:none"
         id="rect3703"
         width="6.1071177"
         height="0.53658068"
         x="10.421048"
         y="1028.3651" />
      <path
         inkscape:connector-curvature="0"
         style="fill:#f4eed7;stroke:#786721;stroke-opacity:1;stroke-width:0.07000000000000001;stroke-miterlimit:4;stroke-dasharray:none"
         d="m 15.416668,1031.7285 c -1.300493,-0.05 -1.255875,0.3327 -1.896841,0.3185 -0.650249,-0.02 -0.85601,-0.2163 -1.287996,-0.2328 -0.499298,-0.02 -1.964286,0.1588 -2.021718,1.6471 -0.09365,2.4284 2.523769,1.5074 2.548877,3.0845 0.0027,0.1408 -0.241155,0.193 -0.257502,0.3327 -0.01709,0.1447 0.183648,0.2526 0.180309,0.3984 -0.0027,0.1168 -0.164138,0.1951 -0.158728,0.3121 0.0072,0.1589 0.25355,0.4014 0.25355,0.4014 l 0.08027,6.1709 -1.564223,-0.062 -0.03906,1.4913 c 0.26175,0.1248 0.473416,0.092 0.677654,0.038 l -0.0088,-0.5632 c 0.194551,-0.095 0.384093,-0.07 0.626877,0.084 l 0.02819,0.5396 c 0.57818,0.1931 1.137688,0.4771 1.831897,0.095 l -0.03862,-7.8825 c 0,0 0.247844,-0.1931 0.257507,-0.3328 0.0088,-0.1267 -0.143786,-0.2218 -0.157884,-0.3488 -0.0165,-0.1467 0.108379,-0.2206 0.0999,-0.3692 -0.0113,-0.1971 -0.232551,-0.2516 -0.239397,-0.456 -0.04835,-1.4431 2.372791,-0.5955 2.459912,-2.8543 0.03678,-0.9538 -0.585915,-1.7849 -1.374195,-1.8152 z m -0.258528,0.5884 c 0.513837,0.02 1.026405,0.4104 1.054247,1.0809 0.03139,0.7559 -0.428113,1.0283 -0.973677,1.0846 -0.248955,0.026 -0.757278,-0.167 -0.757278,-0.167 0,0 0.356359,-0.5079 0.31485,-0.9101 -0.0419,-0.4062 -0.390912,-0.8379 -0.390912,-0.8379 0,0 0.278953,-0.2099 0.622212,-0.2453 0.04326,0 0.08701,0 0.130552,0 z m -3.216988,0.1288 c 0.344825,0.02 0.564157,0.1768 0.564157,0.1768 0,0 -0.32025,0.4532 -0.335982,0.8613 -0.01548,0.4041 0.372362,0.8884 0.372362,0.8884 0,0 -0.48295,0.1709 -0.733054,0.1628 -0.548048,-0.022 -1.058511,-0.2096 -1.053037,-0.9663 0.0038,-0.53 0.629198,-1.144 1.185554,-1.1225 z m 1.575708,0.199 c 0.439031,0.021 0.781215,0.3866 0.764282,0.8257 -0.01689,0.439 -0.386579,0.7809 -0.825585,0.7641 -0.43901,-0.02 -0.780949,-0.3864 -0.764012,-0.8254 0.01689,-0.4389 0.386305,-0.7812 0.825315,-0.7644 z m 0.589324,1.9958 0.275871,0.2528 c 0,0 -0.787515,0.8697 -0.89001,0.8657 -0.169891,0 -0.908017,-0.9091 -0.908017,-0.9091 l 0.20627,-0.1911 c 0.535466,0.1931 0.950728,0.1387 1.315886,-0.02 z"
         id="path3705" />
      <rect
         y="1048.8037"
         x="10.421048"
         height="0.53658068"
         width="6.1071177"
         id="rect3707"
         style="color:#000000;fill:#f4eed7;fill-opacity:1;fill-rule:nonzero;stroke:#786721;stroke-width:0.07000000000000001;marker:none;visibility:visible;display:inline;overflow:visible;enable-background:accumulate;stroke-opacity:1;stroke-miterlimit:4;stroke-dasharray:none" />
      <rect
         style="color:#000000;fill:#f4eed7;fill-opacity:1;fill-rule:nonzero;stroke:#786721;stroke-width:0.07000000000000001;marker:none;visibility:visible;display:inline;overflow:visible;enable-background:accumulate;stroke-opacity:1;stroke-miterlimit:4;stroke-dasharray:none"
         id="rect3709"
         width="6.1071177"
         height="0.53658068"
         x="1035.8033"
         y="-3.8370941"
         transform="matrix(0,1,-1,0,0,0)" />
      <rect
         transform="matrix(0,1,-1,0,0,0)"
         y="-23.648699"
         x="1035.8033"
         height="0.53658068"
         width="6.1071177"
         id="rect3711"
         style="color:#000000;fill:#f4eed7;fill-opacity:1;fill-rule:nonzero;stroke:#786721;stroke-width:0.07000000000000001;marker:none;visibility:visible;display:inline;overflow:visible;enable-background:accumulate;stroke-opacity:1;stroke-miterlimit:4;stroke-dasharray:none" />
    </g>
    <rect
       ry="0.81546146"
       y="1026.6515"
       x="1.4363889"
       height="24.394564"
       width="24.127222"
       id="rect3693"
       style="color:#000000;fill:url(#linearGradient4579);fill-opacity:1;fill-rule:nonzero;stroke:none;stroke-width:1;marker:none;visibility:visible;display:inline;overflow:visible;enable-background:accumulate" />
    <rect
       style="color:#000000;fill:#000000;fill-opacity:0.6820513;fill-rule:nonzero;stroke:none;stroke-width:1;marker:none;visibility:visible;display:inline;overflow:visible;enable-background:accumulate;filter:url(#filter4846)"
       id="rect4862"
       width="24.127222"
       height="24.394564"
       x="1.4363889"
       y="1026.6515"
       ry="0.81546146" />
  </g>
</svg>
